<?xml version="1.0" standalone="no"?>
<!DOCTYPE svg PUBLIC "-//W3C//DTD SVG 20010904//EN"
 "http://www.w3.org/TR/2001/REC-SVG-20010904/DTD/svg10.dtd">
<svg version="1.0" xmlns="http://www.w3.org/2000/svg"
 width="600.000000pt" height="599.000000pt" viewBox="0 0 600.000000 599.000000"
 preserveAspectRatio="xMidYMid meet">
<metadata>
Created by potrace 1.16, written by Peter Selinger 2001-2019
</metadata>
<g transform="translate(0.000000,599.000000) scale(0.100000,-0.100000)"
fill="#000000" stroke="none">
<path d="M1755 5458 c-140 -26 -287 -140 -350 -272 -43 -89 -55 -165 -55 -338
l0 -138 1645 0 1645 0 0 148 c0 186 -11 247 -63 345 -39 74 -77 123 -77 99 0
-6 5 -12 12 -14 8 -3 5 -14 -10 -35 -21 -29 -24 -30 -102 -31 -86 -2 -100 7
-100 60 0 40 18 48 104 48 77 0 79 1 60 18 -35 31 -98 69 -159 93 l-60 24
-1220 1 c-743 1 -1240 -2 -1270 -8z m1522 -476 c29 -21 43 -69 31 -101 -7 -19
-4 -29 12 -46 11 -12 20 -24 20 -28 0 -12 -25 -8 -39 6 -6 6 -36 12 -67 12
-47 0 -58 4 -74 25 -22 28 -26 89 -7 112 31 40 88 49 124 20z m1096 -25 c-4
-7 0 -8 12 -4 14 6 16 3 12 -12 -2 -11 2 -29 10 -40 8 -12 11 -26 8 -31 -11
-17 -100 -12 -122 8 -25 22 -39 56 -19 49 11 -4 11 -1 2 18 -14 31 -18 25 -24
-32 -6 -70 -13 -67 -11 6 2 62 2 63 28 58 14 -3 37 1 51 8 21 12 27 11 42 -2
10 -9 15 -20 11 -26z"/>
<path d="M1310 3411 c0 -28 -3 -30 -42 -33 -36 -2 -45 -8 -56 -31 -11 -23 -11
-34 -2 -57 14 -33 27 -39 88 -38 l42 1 0 93 c0 77 -3 94 -15 94 -10 0 -15 -10
-15 -29z"/>
<path d="M1454 3425 c-4 -8 -4 -22 -1 -29 5 -11 -4 -16 -36 -18 -35 -2 -44 -8
-55 -31 -11 -23 -11 -34 -2 -57 14 -33 27 -39 88 -38 l42 1 0 93 c0 78 -3 94
-15 94 -9 0 -18 -7 -21 -15z"/>
<path d="M2140 3411 c0 -29 -2 -31 -40 -31 -44 0 -60 -18 -60 -69 0 -45 21
-59 85 -59 l56 1 -3 91 c-3 77 -6 91 -20 94 -14 3 -18 -3 -18 -27z"/>
<path d="M920 3340 c0 -83 1 -90 20 -90 16 0 20 7 20 30 0 20 5 30 15 30 8 0
21 -13 30 -30 11 -21 23 -30 40 -30 l24 0 -20 34 c-16 27 -18 39 -10 55 30 54
2 91 -70 91 l-49 0 0 -90z"/>
<path d="M1896 3361 c-21 -23 -20 -74 2 -94 11 -10 35 -16 70 -15 l52 0 0 63
0 63 -54 1 c-39 0 -58 -5 -70 -18z"/>
<path d="M2275 3357 c-8 -12 -15 -31 -15 -42 0 -11 7 -30 15 -42 13 -18 25
-22 70 -22 l55 1 0 63 0 63 -55 1 c-45 0 -57 -4 -70 -22z"/>
<path d="M2257 3183 c-11 -11 -8 -181 3 -188 6 -4 16 -2 23 4 8 6 18 6 27 1
37 -24 80 11 80 65 0 42 -35 71 -75 61 -23 -6 -25 -4 -25 29 0 33 -15 46 -33
28z"/>
<path d="M929 3109 c-26 -26 -24 -65 5 -94 18 -18 33 -23 67 -21 l44 2 3 65 3
66 -51 1 c-38 1 -56 -4 -71 -19z"/>
<path d="M2116 3111 c-9 -9 -16 -34 -16 -54 0 -46 37 -76 74 -59 14 6 28 6 39
0 23 -12 29 5 25 73 l-3 54 -51 2 c-39 2 -55 -2 -68 -16z"/>
<path d="M2421 3104 c-12 -15 -21 -35 -21 -46 0 -24 44 -68 68 -68 33 0 72 38
72 71 0 65 -80 93 -119 43z"/>
<path d="M1196 2873 c-3 -3 -19 -6 -36 -5 l-30 1 0 -65 c0 -57 2 -64 20 -64
17 0 20 7 20 50 0 38 4 50 15 50 11 0 15 -12 15 -50 0 -43 3 -50 19 -50 17 0
20 8 23 47 2 36 7 49 21 51 14 3 17 -4 17 -47 0 -44 3 -51 20 -51 18 0 20 7
20 54 0 36 -5 60 -16 70 -17 18 -20 18 -49 7 -11 -5 -27 -5 -36 0 -9 5 -19 6
-23 2z"/>
<path d="M2410 2867 c-13 -7 -29 -25 -34 -40 -22 -61 67 -114 113 -68 55 55
-10 143 -79 108z"/>
<path d="M2460 2640 c0 -11 -7 -20 -15 -20 -8 0 -15 -6 -15 -14 0 -8 7 -16 15
-20 10 -4 15 -20 15 -51 0 -38 3 -45 20 -45 17 0 20 7 20 51 0 28 4 48 9 44 5
-3 13 0 17 6 4 7 16 -11 30 -42 29 -67 29 -75 4 -82 -25 -6 -27 -37 -2 -37 31
0 50 23 75 90 14 36 28 73 32 83 7 16 4 18 -16 15 -18 -2 -25 -12 -32 -40 -5
-21 -12 -38 -16 -38 -4 0 -13 18 -20 40 -11 36 -15 40 -45 40 -25 0 -35 5 -39
20 -3 11 -12 20 -21 20 -9 0 -16 -8 -16 -20z"/>
<path d="M1530 2598 c-41 -44 -11 -111 50 -111 61 0 91 67 50 111 -27 29 -73
29 -100 0z"/>
<path d="M1660 2553 c0 -56 2 -63 19 -63 17 0 20 8 23 48 2 34 7 47 18 47 11
0 16 -13 18 -47 3 -40 6 -48 23 -48 16 0 19 7 19 51 0 66 24 62 28 -4 3 -39 6
-47 23 -47 16 0 19 7 19 54 0 31 -5 58 -12 64 -7 5 -50 10 -95 9 l-83 0 0 -64z"/>
<path d="M1880 2553 c0 -56 2 -63 19 -63 17 0 20 8 23 47 4 66 28 70 28 4 0
-44 3 -51 19 -51 17 0 20 8 23 48 2 34 7 47 18 47 11 0 16 -13 18 -47 3 -40 6
-48 23 -48 16 0 19 7 19 54 0 31 -5 58 -12 63 -7 6 -50 10 -95 10 l-83 -1 0
-63z"/>
<path d="M4360 1800 c0 -21 -9 -23 -68 -20 -20 1 -41 -5 -53 -16 -24 -22 -25
-76 -1 -97 24 -22 82 -23 82 -2 0 9 -9 15 -24 15 -32 0 -53 26 -39 48 6 10 20
17 31 17 12 0 24 3 27 7 3 3 15 4 26 1 15 -4 19 -14 19 -54 0 -42 3 -49 20
-49 17 0 20 7 20 50 0 38 4 50 15 50 8 0 15 7 15 15 0 8 -7 15 -15 15 -8 0
-15 9 -15 20 0 13 -7 20 -20 20 -13 0 -20 -7 -20 -20z"/>
<path d="M4076 1761 c-21 -23 -20 -74 2 -94 11 -10 35 -16 70 -15 l52 0 0 63
0 63 -54 1 c-39 0 -58 -5 -70 -18z"/>
<path d="M4755 1757 c-8 -12 -15 -33 -15 -48 0 -40 27 -58 88 -57 l52 0 0 63
0 63 -55 1 c-45 0 -57 -4 -70 -22z"/>
<path d="M3160 1550 c0 -27 -2 -29 -28 -24 -61 12 -101 -68 -58 -115 14 -15
30 -20 67 -19 l49 1 0 94 c0 76 -3 93 -15 93 -10 0 -15 -10 -15 -30z"/>
<path d="M3730 1485 c0 -88 1 -95 20 -95 15 0 20 7 20 28 l1 27 22 -27 c18
-23 31 -28 65 -28 l42 0 0 43 c0 24 5 48 12 55 20 20 38 -6 38 -55 0 -37 3
-44 18 -41 14 3 16 12 13 58 -1 30 -7 60 -13 67 -6 7 -29 11 -56 9 l-47 -2 -5
-65 -5 -64 -22 32 c-28 38 -28 45 -3 68 25 22 26 35 3 35 -10 0 -27 -12 -40
-27 l-22 -28 -1 53 c0 45 -3 52 -20 52 -19 0 -20 -7 -20 -95z"/>
<path d="M3235 1505 c-33 -32 -32 -68 1 -94 35 -27 65 -27 92 2 30 32 28 71
-4 96 -35 27 -59 26 -89 -4z"/>
<path d="M4035 1518 c-27 -15 -35 -28 -35 -60 0 -35 32 -68 65 -68 31 0 75 41
75 70 0 26 -43 70 -67 70 -10 0 -27 -6 -38 -12z"/>
<path d="M4430 1510 c-23 -23 -26 -68 -6 -95 10 -15 28 -20 70 -21 l57 -2 -3
66 -3 66 -48 2 c-37 2 -52 -1 -67 -16z"/>
<path d="M5000 1306 c0 -34 -1 -35 -30 -29 -40 8 -70 -19 -70 -62 0 -43 20
-67 56 -66 16 0 42 0 57 0 l28 1 -3 92 c-3 79 -6 93 -20 96 -15 3 -18 -4 -18
-32z"/>
<path d="M3790 1240 l0 -91 62 3 c58 3 63 5 72 30 7 20 6 31 -4 44 -8 9 -13
31 -11 49 3 40 -18 55 -78 55 l-41 0 0 -90z"/>
<path d="M4210 1300 c0 -11 -7 -20 -15 -20 -8 0 -15 -5 -15 -10 0 -6 -7 -6
-18 1 -23 14 -68 5 -76 -16 -9 -24 3 -43 36 -54 16 -6 27 -15 23 -21 -4 -6
-12 -7 -24 -1 -9 5 -23 6 -30 1 -10 -6 -7 -12 13 -25 22 -14 32 -16 51 -7 37
17 34 60 -5 73 -57 20 -29 31 53 20 4 -1 7 -21 7 -46 0 -38 3 -45 20 -45 17 0
20 7 20 44 0 30 5 46 15 50 8 3 15 12 15 21 0 8 -7 15 -15 15 -8 0 -15 9 -15
20 0 13 -7 20 -20 20 -13 0 -20 -7 -20 -20z"/>
<path d="M2932 1257 c-12 -13 -22 -33 -22 -46 0 -27 42 -71 68 -71 33 0 72 38
72 71 0 62 -75 92 -118 46z"/>
<path d="M3380 1258 c-25 -27 -26 -59 -2 -89 38 -46 122 -17 122 42 0 60 -79
91 -120 47z"/>
<path d="M4030 1050 c0 -27 -3 -30 -23 -25 -34 9 -77 -28 -77 -66 0 -46 30
-68 89 -67 l51 1 0 94 c0 86 -1 93 -20 93 -16 0 -20 -7 -20 -30z"/>
<path d="M3796 1006 c-29 -28 -31 -43 -14 -80 13 -29 26 -35 86 -34 l42 1 0
63 c0 60 -1 64 -22 63 -13 0 -33 2 -45 6 -16 5 -29 0 -47 -19z"/>
</g>
</svg>
