<?xml version="1.0" standalone="no"?>
<!DOCTYPE svg PUBLIC "-//W3C//DTD SVG 20010904//EN"
 "http://www.w3.org/TR/2001/REC-SVG-20010904/DTD/svg10.dtd">
<svg version="1.0" xmlns="http://www.w3.org/2000/svg"
 width="600.000000pt" height="599.000000pt" viewBox="0 0 600.000000 599.000000"
 preserveAspectRatio="xMidYMid meet">
<metadata>
Created by potrace 1.16, written by Peter Selinger 2001-2019
</metadata>
<g transform="translate(0.000000,599.000000) scale(0.100000,-0.100000)"
fill="#000000" stroke="none">
<path d="M174 5971 c-60 -27 -119 -84 -148 -144 l-26 -51 0 -2780 c0 -2699 1
-2782 19 -2822 27 -60 84 -119 144 -148 l51 -26 578 0 578 0 0 2543 c0 1639 4
2558 10 2587 25 110 91 209 182 270 111 74 51 70 1122 69 529 -1 943 -5 921
-8 -37 -6 -38 -7 -20 -18 19 -12 19 -12 1 -13 -12 0 -16 -5 -13 -15 4 -8 2
-17 -3 -20 -17 -10 -11 -25 9 -25 11 0 27 7 35 16 9 8 20 12 26 9 5 -3 10 -1
10 5 0 6 5 8 10 5 18 -11 11 -25 -13 -25 -13 0 -27 -3 -30 -7 -9 -9 23 -43 40
-43 8 0 11 -4 8 -10 -3 -5 -21 -9 -38 -7 -28 2 -32 -1 -32 -24 0 -14 -6 -33
-13 -41 -10 -13 -10 -17 4 -22 35 -13 75 -6 98 19 l24 25 16 -25 c14 -21 14
-25 2 -25 -8 0 -17 6 -19 13 -3 7 -6 5 -6 -5 -1 -11 -6 -15 -16 -12 -8 4 -15
1 -15 -5 0 -12 13 -15 45 -12 122 14 114 15 125 -15 12 -31 28 -19 26 19 -1
18 -8 22 -36 24 -19 1 -41 2 -48 2 -7 1 -10 6 -7 11 3 6 1 10 -4 10 -6 0 -10
3 -9 8 2 4 -4 16 -12 28 -13 18 -19 19 -53 9 -21 -6 -38 -14 -38 -18 2 -24 -1
-29 -14 -23 -8 3 -15 1 -15 -4 0 -6 -10 -10 -22 -9 -14 0 -17 3 -9 6 13 5 45
31 75 59 23 21 66 8 97 -29 17 -20 34 -37 37 -37 4 0 13 12 19 27 15 31 5 43
-37 43 l-25 0 29 19 c27 18 27 20 9 29 -11 6 -30 8 -43 5 -20 -5 -22 -3 -18
15 3 12 2 22 -3 24 -4 2 -5 9 0 16 6 11 15 9 45 -7 20 -12 43 -21 50 -21 8 0
16 -6 19 -12 2 -7 4 -1 4 15 0 26 -7 32 -37 27 -12 -2 -11 2 3 18 14 15 15 21
5 26 -7 3 97 4 232 3 l245 -2 66 -32 c73 -36 164 -124 199 -193 48 -93 50
-125 50 -632 l0 -478 355 0 c390 0 397 -1 453 -59 16 -18 35 -51 41 -76 16
-62 16 -3473 0 -3530 -14 -51 -73 -110 -124 -124 -26 -7 -163 -11 -382 -11
l-343 0 0 -165 0 -165 580 0 581 0 47 24 c59 30 115 86 144 146 l23 45 0 2780
0 2780 -23 45 c-29 60 -85 116 -144 146 l-47 24 -2783 0 c-2701 0 -2784 -1
-2824 -19z"/>
<path d="M3757 5103 c-11 -10 -8 -35 2 -28 24 14 19 -18 -9 -56 -23 -32 -30
-53 -30 -88 0 -50 -19 -97 -21 -51 0 22 -1 23 -8 6 -7 -19 -8 -19 -16 0 -4 10
-7 25 -6 33 1 7 -2 10 -8 6 -6 -3 -11 2 -11 12 0 10 -10 36 -23 58 -12 22 -22
55 -22 73 0 33 0 33 -17 11 l-18 -21 0 21 c0 15 -4 20 -12 15 -7 -4 -40 -9
-74 -10 -92 -3 -138 -32 -170 -109 -48 -115 60 -247 188 -232 49 6 58 1 36
-21 -9 -9 -4 -12 24 -12 20 0 40 5 43 10 4 7 11 7 18 2 17 -13 177 -15 177 -1
0 5 5 7 12 3 7 -4 8 -3 4 4 -8 13 2 15 49 12 17 -1 35 -8 41 -15 16 -21 294
-20 294 1 0 9 -9 13 -27 12 -16 -2 -29 1 -30 6 0 5 -9 14 -18 19 -13 7 -20 5
-27 -7 -5 -9 -16 -16 -24 -16 -8 0 -13 4 -10 9 3 5 0 14 -8 20 -14 12 -40 6
-66 -14 -23 -18 -70 -35 -70 -26 0 4 24 20 54 34 48 23 56 32 70 74 28 81 17
142 -37 200 -29 32 -104 54 -171 51 -40 -3 -56 0 -56 9 0 14 -12 17 -23 6z
m-246 -124 c18 -18 20 -29 15 -66 -4 -33 -2 -45 9 -49 8 -4 15 -11 15 -16 0
-6 -10 -4 -23 4 -13 9 -35 13 -55 10 -50 -7 -82 19 -82 68 0 29 6 43 22 54 31
22 74 20 99 -5z"/>
<path d="M1647 5079 c-76 -13 -137 -82 -137 -156 0 -83 46 -145 128 -172 106
-35 221 64 209 182 -9 100 -97 164 -200 146z"/>
<path d="M4285 5083 c-11 -2 -29 -6 -41 -8 -45 -10 -96 -75 -108 -138 -6 -30
-2 -49 19 -92 21 -46 34 -59 75 -80 61 -31 81 -31 147 0 153 71 124 290 -42
317 -16 3 -39 3 -50 1z"/>
<path d="M4121 4473 c-69 -34 -93 -128 -48 -194 34 -51 58 -59 189 -59 133 0
159 8 190 58 43 69 19 163 -49 196 -48 23 -235 22 -282 -1z"/>
<path d="M2710 3888 c0 -7 11 -57 25 -111 14 -54 25 -100 25 -102 0 -3 10 -5
23 -5 20 0 26 10 47 73 l23 72 24 -72 c21 -61 28 -73 47 -73 19 0 25 11 48
108 15 61 23 111 18 116 -20 20 -38 -5 -50 -71 -7 -37 -15 -72 -18 -77 -2 -5
-16 26 -29 68 -31 99 -47 98 -82 -4 l-25 -75 -13 60 c-7 33 -15 70 -18 83 -6
23 -45 32 -45 10z"/>
<path d="M3010 3785 c0 -107 1 -115 20 -115 16 0 19 8 22 56 2 40 8 60 20 67
29 19 48 -9 48 -69 0 -47 2 -54 20 -54 18 0 20 7 20 59 0 33 -3 67 -6 76 -9
24 -49 36 -79 25 -24 -9 -25 -8 -25 30 0 33 -3 40 -20 40 -19 0 -20 -7 -20
-115z"/>
<path d="M3720 3785 c0 -108 1 -115 20 -115 17 0 20 7 20 46 0 54 14 84 39 84
24 0 31 -19 31 -81 0 -42 3 -49 20 -49 18 0 20 7 20 65 0 52 -4 69 -20 85 -23
23 -29 24 -64 10 -25 -9 -26 -8 -26 30 0 33 -3 40 -20 40 -19 0 -20 -7 -20
-115z"/>
<path d="M4680 3786 l0 -113 62 -1 c51 -1 67 3 85 20 25 23 31 75 13 107 -15
28 -61 44 -93 32 -26 -10 -27 -10 -27 29 0 33 -3 40 -20 40 -19 0 -20 -7 -20
-114z"/>
<path d="M3234 3830 c-55 -22 -70 -95 -29 -136 20 -20 33 -25 68 -22 29 2 42
8 42 18 0 10 -8 14 -27 12 -30 -3 -68 13 -68 28 0 5 26 10 58 12 54 3 57 4 54
28 -5 46 -56 77 -98 60z"/>
<path d="M3933 3830 c-46 -19 -60 -103 -22 -141 27 -27 102 -24 107 4 3 16 -1
18 -27 12 -20 -4 -37 -2 -46 5 -27 22 -16 30 40 30 51 0 55 2 55 24 0 50 -59
86 -107 66z"/>
<path d="M4260 3812 c-36 -36 -39 -77 -10 -115 19 -24 27 -26 85 -25 l65 1 0
79 0 78 -27 -1 c-16 -1 -40 2 -55 6 -23 6 -33 2 -58 -23z"/>
<path d="M4587 3833 c-4 -3 -23 -6 -42 -5 l-35 1 0 -79 c0 -73 2 -80 20 -80
17 0 20 7 20 53 0 60 10 80 36 75 16 -3 20 -14 22 -66 3 -57 5 -62 26 -62 21
0 22 3 21 71 -1 57 -5 74 -20 85 -20 15 -38 18 -48 7z"/>
<path d="M4914 3826 c-35 -15 -44 -32 -44 -80 0 -44 35 -76 84 -76 74 0 112
80 64 134 -29 32 -64 39 -104 22z"/>
<path d="M5040 3824 c0 -3 10 -39 22 -80 18 -63 24 -74 41 -72 13 2 26 19 36
47 l17 43 18 -46 c23 -60 51 -63 66 -7 6 22 17 58 25 80 14 40 14 41 -10 41
-19 0 -24 -7 -30 -38 -11 -66 -21 -69 -40 -13 -9 28 -22 51 -30 51 -7 0 -18
-20 -25 -45 -16 -57 -27 -64 -35 -23 -12 60 -16 68 -36 68 -10 0 -19 -3 -19
-6z"/>
<path d="M2720 3445 c0 -107 1 -115 20 -115 16 0 19 8 22 63 3 59 4 62 28 62
23 0 25 -4 30 -60 4 -51 8 -60 24 -60 18 0 19 7 17 70 -2 81 -16 99 -68 91
-32 -5 -33 -4 -33 30 0 27 -4 34 -20 34 -19 0 -20 -7 -20 -115z"/>
<path d="M4250 3445 c0 -107 1 -115 20 -115 16 0 19 8 22 63 3 59 4 62 28 62
24 0 25 -3 28 -62 3 -55 6 -63 22 -63 18 0 20 7 20 69 0 84 -15 106 -67 98
-32 -6 -33 -5 -33 29 0 27 -4 34 -20 34 -19 0 -20 -7 -20 -115z"/>
<path d="M3370 3431 c0 -89 11 -101 86 -98 l56 2 0 80 c0 71 -2 80 -18 80 -16
0 -20 -10 -24 -60 -5 -56 -7 -60 -30 -60 -24 0 -25 3 -28 63 -3 54 -6 62 -22
62 -18 0 -20 -7 -20 -69z"/>
<path d="M4075 3475 c-33 -33 -33 -78 1 -112 21 -21 32 -25 65 -20 21 3 39 2
39 -3 0 -18 -32 -31 -67 -28 -29 2 -38 -1 -41 -14 -4 -20 52 -34 90 -23 51 16
58 31 58 132 0 86 -1 93 -20 93 -11 0 -20 -5 -20 -12 0 -9 -3 -9 -12 0 -20 20
-67 14 -93 -13z"/>
<path d="M3030 3098 c0 -2 13 -43 29 -93 35 -107 147 -513 157 -570 11 -66 16
-70 81 -70 l58 0 0 43 c0 23 3 42 8 42 4 0 6 3 5 8 -4 15 14 72 23 72 5 0 9 5
9 11 0 5 -6 7 -12 3 -9 -6 -9 -3 0 9 8 9 22 19 33 22 16 5 17 10 8 27 -9 16
-7 23 12 36 12 8 29 24 38 35 9 11 24 27 33 36 17 16 16 25 -13 172 -17 85
-33 169 -36 187 l-5 32 -214 0 c-118 0 -214 -1 -214 -2z"/>
<path d="M3524 3058 c3 -24 13 -95 22 -158 8 -63 20 -119 25 -125 6 -6 25 -1
55 15 39 20 50 22 75 13 24 -9 33 -8 53 8 13 10 33 19 44 19 35 0 40 19 31
130 -4 58 -8 113 -8 123 -1 15 -15 17 -152 17 l-152 0 7 -42z"/>
<path d="M4039 3093 c0 -8 2 -130 5 -270 0 -34 5 -65 9 -69 16 -16 27 22 23
78 -5 56 -4 57 30 77 38 23 38 23 24 -15 -9 -24 -9 -25 5 -14 19 16 32 6 17
-13 -14 -17 -6 -27 21 -27 11 0 17 -3 14 -6 -12 -12 13 -43 30 -37 11 4 14 2
11 -8 -3 -8 -10 -13 -15 -12 -5 1 -10 -10 -11 -24 -2 -25 -1 -25 56 -19 l57 7
-28 -26 -28 -25 50 -49 c47 -46 60 -71 65 -129 2 -12 20 -40 42 -61 55 -54 64
-67 64 -91 0 -18 3 -19 20 -10 16 9 24 7 38 -6 16 -17 16 -18 -1 -11 -13 5
-31 -6 -64 -38 -28 -28 -55 -45 -69 -45 -27 0 -32 -17 -9 -26 25 -10 17 -24
-12 -24 -20 0 -24 3 -15 9 10 6 6 11 -17 19 -25 9 -31 8 -31 -3 0 -8 5 -17 10
-20 19 -12 11 -26 -9 -15 -11 5 -27 10 -36 10 -16 0 -16 -2 -1 -25 16 -24 15
-25 -2 -25 -10 0 -19 -6 -20 -12 0 -7 -2 -34 -3 -59 -1 -43 -4 -47 -25 -44
-26 2 -50 -18 -39 -35 3 -5 2 -10 -3 -10 -11 0 -9 -50 2 -69 5 -8 -1 -10 -23
-6 -19 3 -31 1 -31 -5 0 -6 -5 -8 -10 -5 -7 4 -9 -2 -5 -18 5 -20 3 -24 -17
-23 -13 1 -22 -4 -21 -11 2 -7 -4 -13 -12 -13 -9 0 -18 -7 -21 -15 -4 -8 -10
-12 -15 -9 -5 3 -9 -2 -9 -11 0 -10 -5 -13 -12 -9 -11 7 -9 -10 8 -50 6 -17 4
-18 -19 -12 -22 5 -27 3 -28 -11 0 -14 -2 -13 -9 5 -5 12 -14 22 -20 22 -6 0
-8 -5 -4 -11 4 -7 -1 -10 -12 -7 -11 2 -29 -7 -41 -21 -23 -23 -41 -25 -88 -5
-18 7 -19 6 -6 -9 8 -10 11 -20 8 -24 -10 -9 13 -45 26 -40 7 2 20 -5 29 -18
13 -17 13 -22 3 -22 -8 0 -12 4 -9 8 2 4 0 10 -6 14 -5 3 -10 1 -10 -5 0 -7
-8 -9 -20 -5 -27 9 -25 1 8 -30 l27 -27 -32 7 c-32 6 -33 5 -33 -25 0 -24 -4
-31 -14 -27 -10 4 -13 1 -9 -9 3 -8 8 -12 11 -10 3 3 11 -6 19 -21 12 -23 12
-28 -2 -36 -12 -6 -13 -12 -6 -21 18 -22 9 -66 -12 -66 -16 0 -17 -3 -8 -14 7
-8 13 -29 15 -48 2 -18 6 -41 11 -51 4 -9 5 -23 2 -31 -3 -8 -1 -17 6 -19 7
-2 8 -8 4 -13 -4 -4 -17 -2 -29 5 -27 17 -44 1 -29 -27 9 -17 8 -19 -9 -15
-11 3 -20 1 -20 -5 0 -16 320 -23 905 -20 519 3 541 4 574 23 19 11 43 33 55
48 21 28 21 36 24 646 l2 617 -92 -23 c-51 -13 -124 -34 -163 -47 -96 -33
-144 -42 -127 -25 6 7 12 23 12 36 0 22 -3 23 -42 17 -24 -4 -70 -13 -103 -20
-76 -17 -96 -18 -89 -1 3 9 16 12 34 9 24 -3 32 0 39 19 5 13 10 20 10 15 1
-5 7 -4 14 1 6 5 38 18 70 28 49 14 63 15 82 5 28 -15 59 -6 51 15 -5 14 0 17
66 30 9 1 19 -2 22 -9 3 -8 7 -8 13 1 4 6 51 22 103 35 66 16 96 28 98 39 2
13 -32 8 -195 -33 -209 -52 -367 -70 -356 -42 3 8 9 11 14 8 5 -3 9 0 9 5 0 6
5 11 12 11 7 0 38 8 69 17 l58 17 25 71 c14 38 38 117 55 175 17 58 46 150 66
204 19 55 35 101 35 103 0 2 -42 3 -94 3 l-95 0 -16 -57 c-63 -224 -83 -287
-100 -309 -13 -18 -14 -17 -15 16 0 19 18 102 40 183 22 81 40 152 40 158 0 5
-43 9 -98 9 l-98 0 -21 -87 c-12 -49 -33 -113 -47 -143 -25 -55 -25 -55 -25
-20 -1 19 8 82 19 140 11 58 20 105 20 106 0 1 -49 2 -109 2 -120 2 -120 1
-121 -70 0 -15 -15 -43 -35 -68 -19 -23 -36 -54 -36 -68 -1 -17 -4 -11 -9 18
-5 25 -6 78 -3 118 l6 72 -117 0 c-64 0 -116 -3 -117 -7z"/>
<path d="M5110 3073 c-6 -16 -15 -37 -20 -48 -5 -11 -38 -105 -74 -210 -35
-104 -69 -203 -75 -218 -6 -16 -11 -32 -11 -37 0 -4 36 1 80 12 92 23 80 8
147 188 20 52 50 133 68 180 38 97 35 109 -25 140 -55 28 -78 26 -90 -7z"/>
<path d="M5272 2939 c-1 -3 -31 -77 -67 -164 -35 -88 -62 -161 -60 -163 4 -5
110 18 124 28 8 4 11 54 8 156 -1 82 -4 146 -5 143z"/>
<path d="M4102 2503 c-19 -9 -36 -24 -39 -32 -2 -9 -9 -24 -14 -33 -6 -12 -6
-18 1 -18 5 0 10 -5 10 -10 0 -6 -11 -5 -27 3 -16 8 -34 12 -40 10 -7 -3 -13
2 -13 9 0 8 -7 23 -15 34 -13 17 -13 15 0 -17 8 -20 12 -39 9 -42 -3 -3 3 -3
15 0 14 3 33 -4 55 -21 19 -14 47 -31 63 -37 l28 -10 -27 28 c-16 16 -28 31
-28 34 0 2 17 5 38 6 55 3 85 47 66 97 -8 20 -40 20 -82 -1z"/>
<path d="M4402 738 c3 -79 6 -93 21 -96 14 -3 17 4 17 32 0 32 3 36 26 36 14
0 34 5 45 10 16 9 19 7 19 -13 0 -30 39 -67 71 -67 58 0 93 85 51 123 -23 21
-80 22 -101 3 -14 -13 -16 -12 -17 10 -3 41 -22 54 -81 54 l-54 0 3 -92z"/>
<path d="M4820 806 c0 -22 -19 -30 -75 -30 -47 -1 -50 -3 -53 -28 -3 -21 3
-30 27 -43 17 -8 31 -20 31 -25 0 -14 -14 -12 -28 2 -9 9 -15 9 -24 -1 -11
-10 -9 -15 6 -27 23 -17 40 -18 67 -4 30 17 23 48 -16 71 -19 12 -35 22 -35
23 0 2 23 3 50 4 l50 1 0 -55 c0 -47 3 -55 18 -52 13 2 18 15 20 52 2 32 9 54
20 62 16 12 16 13 0 19 -10 4 -18 16 -18 26 0 12 -7 19 -20 19 -11 0 -20 -6
-20 -14z"/>
</g>
</svg>
