<?xml version="1.0" standalone="no"?>
<!DOCTYPE svg PUBLIC "-//W3C//DTD SVG 20010904//EN"
 "http://www.w3.org/TR/2001/REC-SVG-20010904/DTD/svg10.dtd">
<svg version="1.0" xmlns="http://www.w3.org/2000/svg"
 width="600.000000pt" height="599.000000pt" viewBox="0 0 600.000000 599.000000"
 preserveAspectRatio="xMidYMid meet">
<metadata>
Created by potrace 1.16, written by Peter Selinger 2001-2019
</metadata>
<g transform="translate(0.000000,599.000000) scale(0.100000,-0.100000)"
fill="#000000" stroke="none">
<path d="M4340 5002 c-32 -16 -35 -22 -48 -87 l-14 -69 28 -23 c16 -12 41 -25
56 -29 16 -3 26 -10 22 -15 -10 -18 19 -9 72 22 52 30 71 62 42 72 -10 3 -10
7 0 19 9 11 10 18 2 23 -5 3 -10 3 -11 -2 -1 -4 -5 8 -9 27 -6 22 -5 37 2 41
6 4 2 11 -10 18 -14 8 -23 8 -27 1 -5 -8 -12 -7 -22 2 -22 18 -44 18 -83 0z
m99 -88 c7 -25 10 -48 6 -52 -3 -4 -27 -7 -52 -7 -37 0 -49 5 -69 28 -28 33
-31 52 -6 42 14 -5 15 -4 5 6 -19 19 -16 42 4 35 10 -4 14 -4 10 0 -4 5 2 13
15 20 32 17 70 -14 87 -72z"/>
<path d="M2146 4979 c4 -29 2 -30 -25 -24 -43 9 -71 -12 -71 -53 0 -59 13 -72
75 -70 l55 2 0 88 c0 79 -2 88 -19 88 -15 0 -18 -6 -15 -31z"/>
<path d="M2300 4979 c0 -29 -2 -30 -29 -24 -62 13 -97 -40 -64 -95 16 -27 22
-30 65 -28 l48 2 0 88 c0 52 -4 88 -10 88 -5 0 -10 -14 -10 -31z"/>
<path d="M3976 4959 c-41 -33 -34 -89 15 -115 22 -11 34 -12 50 -4 16 9 25 8
40 -6 10 -9 19 -12 19 -6 0 6 -5 14 -11 17 -6 4 -8 22 -4 46 6 33 3 42 -19 64
-31 30 -55 32 -90 4z"/>
<path d="M1637 4630 c12 -5 27 -18 33 -29 9 -17 8 -20 -6 -14 -11 4 -15 3 -10
-5 3 -6 2 -13 -4 -17 -5 -3 -10 2 -11 12 0 16 -1 16 -9 -2 -9 -20 -9 -20 -9 1
-1 11 -6 25 -13 32 -17 17 -58 15 -58 -2 0 -8 -11 -16 -23 -20 -19 -4 -24 -12
-24 -38 0 -18 2 -25 4 -15 5 18 23 24 23 8 0 -5 3 -16 6 -25 4 -11 1 -16 -10
-16 -9 0 -16 -4 -16 -9 0 -17 67 -51 100 -51 27 0 32 3 27 20 -5 21 8 29 15 8
12 -36 58 44 51 89 -6 36 -47 83 -72 82 -11 0 -9 -3 6 -9z"/>
<path d="M1632 4156 c2 -8 -1 -15 -7 -16 -5 -1 -18 -6 -27 -11 -14 -7 -18 -6
-18 6 0 12 -3 13 -19 3 -10 -6 -17 -18 -14 -25 4 -9 0 -11 -11 -7 -11 4 -19
-2 -26 -21 -7 -17 -9 -269 -8 -728 l3 -702 39 -3 c24 -2 42 2 47 10 7 9 11 10
17 2 4 -6 42 -15 85 -19 71 -6 77 -5 77 12 1 17 1 17 14 0 10 -13 33 -20 85
-24 64 -5 71 -4 65 11 -3 9 -1 16 5 16 6 0 11 -7 11 -15 0 -17 53 -29 110 -23
22 2 40 0 40 -4 0 -5 21 -8 48 -9 26 0 70 -4 97 -9 71 -11 -111 -4 -350 15
-238 19 -385 23 -382 11 2 -11 -4 -11 232 -25 99 -7 205 -14 235 -17 30 -3
109 -9 175 -13 90 -6 133 -13 173 -31 51 -22 53 -22 72 -5 11 10 20 24 20 32
0 7 7 13 15 13 8 0 15 4 15 9 0 13 -119 18 -133 6 -6 -5 -5 -2 3 8 10 14 24
18 51 15 23 -2 35 0 32 7 -3 5 0 4 8 -2 18 -17 29 -16 29 2 0 8 -4 15 -9 15
-5 0 -17 3 -27 7 -10 4 -15 2 -11 -4 4 -6 -7 -9 -26 -9 -23 1 -33 6 -34 17 -1
13 9 14 58 11 39 -3 59 -1 59 7 0 6 -18 11 -44 11 -25 0 -48 4 -51 10 -4 6 27
8 81 6 75 -3 89 -7 103 -25 14 -18 34 -23 161 -35 l145 -14 -142 5 c-94 4
-143 2 -143 -4 0 -14 39 -21 203 -34 78 -7 151 -15 162 -19 12 -5 -3 -6 -35
-4 -174 14 -325 22 -329 18 -10 -9 34 -32 49 -24 8 4 21 5 28 3 15 -6 16 -40
0 -45 -6 -2 5 -21 27 -44 23 -23 33 -30 26 -16 -10 20 -9 22 10 22 12 0 23 -8
26 -20 6 -22 22 -28 19 -7 0 6 4 14 9 16 13 5 35 -37 35 -68 0 -21 -4 -23 -40
-19 -22 2 -36 0 -31 -5 5 -5 24 -7 42 -5 34 3 34 3 32 53 -1 48 -1 49 12 25 8
-14 14 -35 15 -48 0 -13 4 -20 10 -17 6 4 8 15 5 26 -4 10 -2 19 3 19 5 0 13
-16 16 -35 4 -19 12 -37 18 -41 7 -5 9 1 5 17 -3 13 -9 42 -13 64 -6 36 -5 39
9 27 9 -8 18 -23 20 -35 4 -18 5 -17 6 6 1 28 25 38 34 15 4 -10 6 -10 6 0 1
14 27 16 36 2 3 -5 10 -29 14 -52 l9 -43 2 45 c1 48 11 38 25 -24 5 -22 9 -26
15 -16 4 7 6 19 3 27 -3 7 -1 13 4 13 5 0 14 -12 20 -27 l11 -28 2 35 2 35 14
-32 c17 -40 27 -43 18 -6 -6 23 -5 25 12 18 10 -4 30 -7 42 -6 17 1 26 -6 30
-22 6 -22 6 -22 13 3 7 24 8 24 14 4 4 -14 15 -21 35 -21 27 0 28 2 24 36 l-4
36 20 -40 20 -40 -6 43 c-6 44 7 57 25 25 10 -17 10 -17 11 0 0 13 8 17 34 17
31 0 35 -3 43 -37 7 -32 13 -39 37 -41 29 -4 30 0 8 57 -3 8 0 12 8 9 8 -2 20
-20 27 -39 l13 -34 -4 37 c-4 35 -4 36 29 36 30 0 36 -4 47 -36 8 -26 13 -32
16 -19 2 10 -2 24 -8 32 -10 12 -9 15 3 15 9 0 18 -12 22 -29 5 -23 11 -29 31
-27 22 1 25 4 20 30 -5 24 -4 27 9 16 8 -7 15 -18 15 -26 0 -7 5 -16 10 -19 7
-4 9 2 4 19 -8 34 13 35 28 1 14 -30 33 -19 43 25 3 16 13 34 21 41 8 6 14 17
14 25 0 7 9 18 20 24 11 6 20 18 20 28 0 15 -13 17 -103 18 -105 1 -99 -5 28
-24 97 -15 8 -14 -200 3 -99 8 -193 15 -210 15 l-30 1 28 15 c15 8 27 19 27
24 0 15 -12 12 -50 -14 -23 -15 -42 -21 -54 -16 -17 6 -18 7 -3 13 9 3 17 2
17 -4 0 -6 5 -7 10 -4 6 4 8 10 5 15 -7 11 23 60 36 60 5 0 17 -8 27 -18 16
-16 53 -22 236 -36 120 -10 218 -16 219 -14 18 35 28 43 54 46 26 3 33 -2 44
-27 8 -17 17 -31 20 -31 4 0 10 -7 13 -16 4 -9 2 -13 -5 -8 -6 3 -4 -5 5 -18
15 -23 25 -26 109 -32 63 -5 93 -4 95 4 3 7 9 7 19 -2 9 -7 43 -13 79 -13 35
0 64 -3 64 -7 0 -3 34 -8 75 -10 55 -2 76 0 80 10 8 21 7 22 -27 23 -18 0 -51
4 -73 9 -34 8 -29 9 33 6 l72 -3 0 28 c0 22 -4 26 -20 22 -14 -4 -20 0 -20 12
0 12 5 15 20 10 14 -5 20 -2 20 9 0 12 -11 16 -45 16 -29 0 -47 5 -53 15 -7
13 -43 16 -226 19 -194 3 -256 10 -218 23 6 3 12 9 12 14 0 6 -4 8 -9 4 -19
-11 -22 17 -4 30 17 12 19 20 12 62 -13 78 -12 83 16 83 26 0 29 -6 40 -92 6
-47 6 -47 51 -54 25 -3 48 -4 51 0 3 3 -4 78 -16 167 -12 88 -20 163 -17 166
2 2 13 0 24 -6 19 -10 23 -29 61 -281 6 -42 8 -45 40 -48 28 -3 33 -1 27 13
-11 29 -46 297 -40 306 5 8 33 13 35 7 0 -2 13 -77 28 -168 24 -143 30 -165
47 -168 10 -2 23 -8 28 -13 6 -5 21 -9 34 -9 20 0 23 4 18 23 -4 12 -9 43 -12
68 -6 44 -5 46 17 44 22 -1 25 -8 33 -68 7 -60 11 -67 37 -76 l29 -10 0 519 0
519 -40 23 c-22 13 -40 29 -40 36 0 6 -4 11 -8 10 -4 -2 -59 30 -121 71 -63
40 -129 78 -147 83 -19 5 -34 15 -34 23 0 8 -5 15 -11 15 -5 0 -7 -6 -4 -12 4
-7 1 -6 -7 2 -7 8 -28 27 -46 43 -27 22 -30 27 -14 27 10 0 35 -15 54 -32 19
-18 53 -42 74 -53 21 -11 58 -32 81 -46 28 -17 52 -25 68 -21 18 3 25 0 25
-12 0 -11 9 -16 30 -16 17 0 30 -4 30 -10 0 -5 -9 -10 -21 -10 -18 0 -19 -2
-5 -15 8 -8 19 -15 25 -15 5 0 27 -16 48 -35 60 -55 63 -50 63 79 l0 113 -62
6 c-196 17 -316 31 -335 38 -15 6 -20 14 -16 28 3 12 9 21 13 21 11 0 34 -30
24 -30 -5 0 -2 -5 6 -10 8 -5 26 -10 40 -9 l25 0 -25 14 c-24 14 -24 14 -3 15
12 0 25 5 28 10 6 10 -6 14 -36 11 -22 -2 -69 17 -69 28 0 5 8 8 17 7 12 -1
17 7 18 24 0 20 -4 24 -20 22 -11 -2 -21 -8 -23 -12 -6 -16 -32 2 -32 22 0 27
19 60 31 52 7 -4 6 -10 -1 -19 -8 -9 -6 -14 6 -19 29 -11 38 10 13 32 -19 18
-34 21 -103 20 -61 -1 -74 -3 -51 -9 20 -6 11 -7 -30 -3 -93 7 -262 14 -245 9
8 -2 78 -11 154 -20 80 -8 143 -20 147 -27 10 -16 -23 -58 -41 -53 -8 3 -33
-2 -55 -9 l-40 -14 40 -5 c22 -2 16 -3 -12 -1 l-52 3 15 -25 c18 -26 54 -33
54 -9 0 21 58 20 90 -2 32 -21 80 -65 80 -73 0 -4 -30 -2 -67 3 -38 5 -79 8
-92 8 -18 -1 -22 3 -18 18 5 22 -6 25 -143 37 -76 6 -150 29 -150 45 0 11 25
12 69 3 34 -7 41 -20 14 -27 -10 -3 -3 -5 15 -6 26 -1 32 3 32 19 0 15 -7 20
-27 21 l-28 1 30 8 c17 4 24 8 16 9 -8 0 -22 8 -32 17 -14 12 -22 13 -39 4
-16 -8 -30 -9 -52 -1 -17 6 -47 11 -67 11 -20 0 -94 7 -166 15 -358 42 -519
55 -656 55 l-151 0 6 -24 c7 -29 -20 -59 -30 -32 -3 9 -4 25 -1 36 5 20 -1 20
-309 20 -288 0 -338 -4 -305 -25 13 -7 60 -93 54 -98 -7 -7 -93 18 -131 37
-19 10 -31 20 -28 24 4 3 11 1 16 -4 12 -12 72 -6 65 6 -3 5 -1 11 5 15 14 9
2 25 -14 19 -7 -3 -16 2 -19 10 -4 9 -17 16 -30 16 -20 0 -24 -5 -22 -24 2
-18 -1 -23 -11 -19 -8 3 -22 -9 -35 -31 -11 -20 -23 -36 -26 -36 -2 0 -1 5 3
11 4 7 -6 10 -32 7 -37 -3 -39 -1 -36 22 6 38 22 52 51 45 21 -5 23 -4 12 9
-18 21 -93 22 -89 2z m968 -141 c0 -7 6 -20 14 -27 8 -8 16 -23 18 -34 4 -24
38 -31 50 -10 7 12 24 16 66 15 31 0 52 -3 45 -5 -20 -9 -3 -32 29 -39 22 -5
33 -2 42 11 14 19 52 13 41 -7 -4 -6 2 -13 14 -16 20 -5 20 -6 4 -18 -16 -12
-16 -14 0 -29 9 -10 22 -14 28 -10 8 5 9 3 4 -5 -4 -7 -17 -11 -30 -9 -16 4
-28 -4 -44 -28 -21 -30 -22 -36 -10 -64 8 -16 20 -30 27 -30 10 0 10 6 -2 28
-19 38 -5 71 35 79 17 3 36 14 42 24 7 11 16 19 21 19 4 0 1 -11 -8 -24 -11
-18 -13 -27 -4 -32 7 -4 8 -3 4 4 -4 7 -1 12 8 12 11 0 14 10 13 38 -2 33 0
38 15 34 12 -3 18 1 18 13 0 15 7 17 42 12 23 -3 47 -12 53 -19 16 -22 45 -30
45 -13 0 7 5 17 12 21 8 5 9 2 5 -9 -9 -24 6 -28 49 -13 22 8 35 16 29 17 -5
1 -14 3 -20 4 -5 2 -17 4 -25 5 -8 1 -1 5 15 9 17 3 30 11 30 16 0 5 -13 12
-30 15 l-30 6 23 13 c33 18 52 7 52 -30 0 -25 3 -29 13 -20 8 6 17 8 20 4 4
-3 7 0 7 7 0 24 59 -54 60 -78 0 -17 10 -27 35 -38 44 -18 45 -34 3 -35 -28 0
-30 -2 -13 -9 11 -5 31 -9 44 -9 24 -1 71 -36 71 -53 0 -5 -9 -4 -20 2 -11 6
-18 15 -15 20 3 5 -3 8 -14 7 -11 0 -18 -4 -15 -9 2 -4 -4 -12 -15 -17 -14 -8
-22 -7 -31 4 -17 20 -25 19 -38 -7 -10 -21 -11 -19 -11 19 -1 31 -9 53 -36 87
-19 26 -35 51 -35 56 0 14 -22 12 -44 -5 -20 -15 -20 -15 0 -30 17 -13 15 -15
-36 -16 -44 -2 -48 -3 -17 -6 20 -2 35 -8 32 -13 -4 -6 6 -7 23 -4 38 8 51
-12 25 -37 -19 -20 -20 -20 -47 2 -26 20 -29 21 -38 6 -13 -23 -34 -21 -52 5
-13 18 -16 19 -16 6 0 -9 4 -19 10 -23 5 -3 7 -13 4 -23 -5 -15 -4 -15 6 -2
10 13 11 13 7 -1 -3 -9 0 -22 6 -28 7 -7 -3 -4 -21 5 -19 9 -31 22 -28 29 2 7
-7 29 -20 49 -18 26 -32 36 -52 36 -26 0 -26 0 8 -18 20 -10 39 -29 44 -45 8
-23 6 -31 -13 -50 -19 -17 -23 -18 -18 -4 4 9 1 17 -5 17 -6 0 -20 8 -30 17
-20 18 -52 27 -42 12 3 -5 9 -7 14 -4 5 3 11 1 15 -5 11 -17 -37 -11 -50 7
-11 14 -13 13 -17 -11 -4 -20 -2 -26 8 -22 7 3 16 1 19 -4 6 -9 24 -8 43 3 12
8 32 1 32 -11 0 -4 -10 -8 -22 -9 -13 -1 -35 -17 -50 -36 -26 -32 -28 -33 -83
-27 -31 3 -59 2 -62 -3 -6 -9 -174 -3 -255 10 -32 5 -38 10 -38 29 0 14 5 23
13 22 7 -2 13 11 15 35 2 28 7 37 17 33 44 -17 26 196 -21 235 -18 15 -18 29
1 29 8 0 15 5 15 11 0 5 5 7 10 4 6 -3 10 -12 10 -20z m-270 -38 c5 2 11 -6
15 -16 4 -13 23 -22 67 -31 43 -8 57 -14 47 -21 -11 -7 -10 -9 6 -9 11 0 27
-5 35 -11 11 -8 -5 -9 -57 -5 l-73 5 1 -27 c3 -54 -1 -83 -11 -77 -11 7 -12
-1 -4 -31 5 -18 16 -23 60 -29 30 -3 54 -10 54 -14 0 -5 -23 -4 -52 0 -38 6
-55 5 -61 -4 -7 -9 -10 -9 -14 1 -2 6 -11 12 -19 12 -18 0 -18 14 2 56 14 29
15 43 5 91 -6 31 -18 64 -26 73 -8 9 -15 22 -15 28 0 7 -4 12 -10 12 -5 0 -10
-7 -10 -16 0 -8 -4 -12 -10 -9 -16 10 -12 45 4 39 8 -3 17 0 22 7 5 9 11 7 21
-7 8 -10 18 -18 23 -17z m-344 -59 c4 -7 3 -8 -4 -4 -7 4 -12 3 -12 -3 0 -5 7
-14 16 -19 26 -14 0 -24 -32 -12 -30 12 -42 7 -27 -12 5 -7 18 -44 28 -83 9
-38 25 -76 33 -82 9 -7 36 -14 61 -15 l46 -1 -50 -7 c-39 -5 -43 -7 -17 -8 20
-1 31 -6 27 -12 -10 -16 14 -40 40 -40 27 0 35 -8 28 -26 -8 -23 -103 -16
-103 7 0 5 9 9 21 9 11 0 17 5 14 10 -3 6 -20 10 -37 10 -26 0 -28 -2 -18 -15
6 -8 9 -19 5 -25 -11 -18 -23 -11 -27 19 -2 17 0 29 5 28 24 -5 16 24 -9 34
-23 8 -25 12 -14 19 10 6 11 10 3 10 -15 0 -33 32 -39 68 -7 37 -35 80 -55 85
-20 5 -46 53 -36 63 4 4 20 1 37 -6 23 -10 34 -10 43 -1 14 14 30 15 22 1 -3
-6 1 -7 9 -4 9 3 16 10 16 15 0 13 18 11 26 -3z m2151 -59 c8 -10 22 -14 42
-11 22 3 32 -1 41 -18 16 -30 5 -37 -22 -14 -12 10 -18 13 -14 7 4 -8 1 -13
-8 -13 -19 0 -20 -9 -2 -32 9 -12 28 -18 57 -19 l44 -1 -35 -10 c-45 -11 -87
3 -100 34 -7 20 -9 17 -10 -17 -1 -35 -2 -38 -14 -22 -7 9 -18 17 -24 17 -23
0 -93 38 -82 45 8 5 8 11 1 19 -15 18 59 47 83 34 10 -6 16 -5 16 1 0 5 -6 12
-12 15 -7 3 -4 4 7 3 11 -1 25 -9 32 -18z m-2345 -141 c23 -60 45 -108 50
-108 10 0 11 -3 -12 58 -11 28 -18 52 -15 52 3 0 18 -27 35 -60 17 -33 34 -59
38 -57 12 3 72 -62 72 -78 0 -8 -3 -15 -7 -15 -12 0 -35 16 -34 24 3 19 0 26
-10 26 -8 0 -9 -4 0 -13 13 -16 5 -28 -15 -20 -8 3 -14 13 -14 23 0 28 -18 34
-22 8 -2 -13 -11 -24 -22 -26 -15 -3 -18 0 -13 17 3 14 -1 24 -14 31 -11 6
-16 16 -12 26 3 8 1 25 -4 37 -9 19 -40 119 -59 192 -13 47 18 -15 58 -117z
m1630 -46 c10 -37 14 -40 70 -52 l43 -9 -42 3 c-24 2 -43 0 -43 -5 0 -5 9 -9
19 -9 10 0 21 -6 24 -13 3 -9 31 -16 79 -21 40 -3 82 -8 93 -10 11 -3 23 -5
28 -5 4 -1 7 -10 7 -22 0 -18 -4 -20 -37 -15 -21 3 -90 8 -153 11 -63 3 -145
8 -182 11 -63 6 -67 8 -77 35 -6 16 -17 37 -26 45 -20 20 -19 33 3 28 72 -16
175 -34 191 -34 27 0 17 25 -11 27 -30 3 -42 18 -25 34 7 8 12 20 9 28 -3 8 1
12 9 9 7 -2 17 -18 21 -36z m631 2 c29 -15 48 -34 48 -49 -1 -14 42 -101 52
-107 8 -5 4 -8 -10 -8 -15 0 -26 11 -40 40 -10 22 -21 40 -24 40 -7 0 -18 -82
-13 -89 2 -2 43 -7 91 -11 49 -4 82 -8 75 -9 -7 0 -11 -5 -8 -9 2 -4 1 -13 -3
-20 -5 -9 -28 -9 -91 -2 -48 5 -88 6 -93 1 -7 -7 144 -28 166 -23 4 1 7 -5 7
-13 0 -8 -6 -12 -12 -10 -7 2 -38 6 -68 9 -30 3 -65 7 -77 10 -27 6 -38 -8
-47 -55 -7 -42 -30 -67 -41 -48 -5 6 -19 9 -38 5 l-30 -6 28 24 c25 22 29 32
35 115 8 88 27 141 51 141 6 0 19 -5 30 -10 15 -8 19 -7 19 5 0 9 -9 15 -25
15 -30 0 -43 24 -25 45 8 10 9 15 2 15 -6 0 -18 -10 -27 -22 l-17 -23 7 25 7
25 -18 -25 c-9 -14 -19 -27 -20 -28 -1 -2 -12 -1 -23 3 -23 7 -28 34 -9 53 17
17 104 15 141 -4z m280 -5 c4 -16 11 -20 26 -15 12 3 30 9 42 12 17 6 20 3 17
-12 -2 -10 -14 -21 -28 -24 -22 -6 -20 -8 20 -18 l45 -12 -44 6 c-39 4 -43 3
-36 -13 9 -21 9 -26 0 -75 -7 -33 -5 -37 16 -41 22 -4 22 -4 -3 -6 -16 0 -29
-7 -30 -13 -4 -35 -3 -43 4 -49 16 -11 -4 -39 -27 -39 -20 0 -33 -14 -35 -38
0 -4 14 -10 32 -13 32 -6 32 -6 5 -8 -31 -1 -28 -21 4 -21 10 0 19 -4 19 -8 0
-13 -96 2 -114 17 -20 16 -20 43 -2 79 7 15 16 52 20 82 4 30 10 60 14 66 12
18 50 34 66 28 9 -3 16 -1 16 5 0 6 -10 11 -22 11 -32 0 -52 15 -45 34 4 10 1
16 -9 16 -8 0 -13 4 -10 9 12 19 -28 4 -44 -17 -15 -17 -23 -19 -54 -12 -21 4
-44 17 -51 27 -13 17 -9 18 52 25 36 4 69 11 72 16 5 9 30 16 67 21 7 0 14 -9
17 -20z m-983 -159 c51 -5 95 -12 98 -15 9 -9 -142 4 -185 15 -30 8 -32 7 -23
-11 8 -14 22 -19 53 -20 23 0 62 -4 87 -9 37 -8 30 -8 -36 -5 -57 3 -87 0 -99
-9 -27 -20 -2 -31 75 -32 36 0 72 -3 80 -6 8 -4 44 -12 80 -18 36 -7 71 -17
78 -22 9 -8 20 -8 38 1 30 13 37 14 30 3 -3 -5 26 -15 64 -21 73 -13 94 -31
38 -31 -24 0 -29 -3 -18 -9 8 -6 18 -7 22 -5 18 11 68 -8 68 -25 0 -9 6 -23
13 -30 10 -10 2 -12 -43 -7 -191 19 -302 27 -315 22 -8 -3 -17 -1 -20 4 -4 6
-1 10 4 10 6 0 11 9 11 20 0 11 -4 20 -10 20 -5 0 -10 5 -10 11 0 6 -6 17 -14
25 -19 19 -30 1 -16 -26 16 -30 -7 -48 -65 -53 -47 -3 -68 -18 -46 -31 6 -4 8
-13 4 -22 -4 -12 4 -14 48 -13 61 3 119 -8 119 -22 0 -11 -24 -12 -34 -2 -3 4
-14 8 -23 9 -15 2 -15 1 0 -14 10 -10 39 -17 77 -20 40 -3 60 -9 60 -17 0 -13
25 -18 162 -31 51 -5 65 -9 61 -20 -4 -10 3 -14 26 -14 17 0 31 -4 31 -8 0 -5
-24 -7 -52 -5 -79 5 -119 13 -113 22 6 10 -18 21 -47 21 -14 0 -18 -5 -14 -15
4 -12 -3 -15 -37 -15 -40 0 -42 -2 -44 -30 -2 -23 2 -30 15 -30 18 0 42 -18
42 -31 0 -3 -21 -4 -46 -1 -34 3 -45 2 -40 -7 4 -6 23 -11 42 -11 19 0 34 -5
34 -11 0 -6 -16 -9 -39 -8 -21 2 -45 -2 -53 -8 -11 -10 -13 -4 -12 31 1 41 0
43 -24 38 -24 -5 -25 -6 -7 -14 14 -5 8 -7 -22 -5 -24 1 -43 -2 -43 -7 0 -6
-5 -5 -12 2 -20 20 -32 13 -13 -8 17 -19 17 -19 -14 -10 -28 8 -30 7 -21 -10
5 -10 35 -26 65 -36 53 -16 76 -36 74 -66 0 -7 -5 -2 -10 11 -7 17 -13 21 -20
14 -8 -8 -6 -18 5 -35 l16 -24 -37 3 c-20 1 -41 7 -47 13 -8 8 -4 10 15 5 17
-4 30 -2 34 6 5 8 4 10 -3 5 -15 -9 -15 -1 -2 24 6 11 6 21 1 25 -5 3 -12 -4
-16 -14 -7 -24 -35 -17 -35 9 0 11 -5 22 -12 26 -8 5 -9 2 -5 -10 5 -13 3 -15
-12 -7 -10 6 -23 17 -31 25 -14 17 -35 22 -25 6 3 -5 1 -18 -4 -29 -13 -23
-85 -33 -119 -15 -21 11 -21 12 14 17 20 3 45 14 55 23 18 16 19 16 19 0 0 -9
5 -14 10 -11 14 9 12 44 -2 41 -7 -1 -24 -9 -38 -18 -14 -8 -38 -19 -55 -22
l-30 -7 33 20 c38 25 42 34 7 21 -17 -7 -25 -6 -25 1 0 6 -7 8 -16 5 -25 -9
-95 5 -87 18 3 6 0 5 -8 -2 -12 -11 -12 -14 1 -22 25 -16 6 -19 -27 -5 -32 13
-33 16 -33 70 0 70 25 101 73 90 18 -3 53 -9 80 -12 35 -4 47 -9 47 -21 0 -10
5 -24 10 -32 7 -11 8 -6 4 18 -6 31 -5 32 25 32 26 0 34 -6 51 -40 11 -22 22
-40 24 -40 15 0 35 14 30 21 -3 5 4 9 15 9 11 0 23 5 26 10 3 6 14 10 24 10
10 0 24 7 31 15 7 8 21 15 31 15 11 0 19 4 19 9 0 14 -30 42 -39 37 -4 -3 -22
8 -40 24 -37 35 -55 38 -46 10 4 -11 2 -20 -4 -20 -6 0 -11 5 -11 10 0 6 -9
10 -20 10 -14 0 -20 7 -20 21 0 11 -4 18 -9 15 -4 -3 -11 19 -14 50 -3 30 -11
62 -18 70 -9 11 -8 14 5 14 9 0 16 2 16 4 0 2 3 13 7 23 6 16 5 16 -10 4 -9
-7 -17 -12 -18 -10 0 2 -3 35 -5 73 -5 76 9 112 32 81 9 -12 37 -19 104 -25z
m-1760 -16 c0 -8 -5 -14 -10 -14 -7 0 -7 -6 0 -20 8 -15 8 -20 -2 -20 -9 0 -9
-3 2 -10 8 -5 29 -10 45 -10 18 0 25 3 18 8 -7 4 -10 17 -6 30 6 26 4 25 37
12 18 -6 26 -6 26 1 0 6 5 7 10 4 6 -4 8 -11 4 -16 -3 -6 2 -16 12 -24 26 -19
191 -18 198 1 3 8 0 11 -10 7 -7 -3 -14 -1 -14 5 0 6 6 13 13 15 6 3 -1 6 -16
6 -24 1 -27 -2 -22 -20 5 -15 3 -20 -6 -17 -19 6 -24 48 -7 49 7 1 24 3 38 4
14 2 32 -3 40 -10 35 -29 61 -37 77 -23 9 7 33 13 55 14 30 0 38 -3 38 -18 0
-10 7 -18 15 -18 8 0 15 -9 15 -19 0 -11 5 -21 11 -23 5 -2 7 -11 3 -22 -6
-16 -17 -18 -90 -14 -46 1 -84 0 -84 -4 0 -5 7 -8 15 -8 8 0 15 -4 15 -10 0
-14 -22 -12 -43 4 -16 13 -16 14 5 28 21 14 13 16 -107 24 -72 5 -141 8 -155
7 -14 -1 -62 1 -107 4 -79 5 -83 6 -83 29 0 16 6 24 18 24 11 0 18 8 19 20 1
11 -3 20 -8 20 -6 0 -8 -4 -4 -9 6 -11 -13 -26 -22 -17 -4 3 4 17 16 30 24 25
51 25 51 0z m1112 -14 c106 -15 176 -10 182 13 5 20 29 14 58 -15 25 -25 23
-31 -7 -24 -20 5 -26 2 -31 -19 -7 -28 -31 -29 -26 -1 2 9 -2 16 -9 16 -7 0
-9 -10 -7 -25 5 -23 -2 -30 -26 -26 -11 2 -36 -19 -36 -31 0 -5 6 -6 13 -2 9
5 9 4 0 -6 -9 -10 -38 -10 -147 0 l-136 13 0 37 c0 20 6 42 13 49 10 11 8 12
-9 3 -11 -6 -29 -9 -40 -7 -48 10 -106 13 -98 5 5 -5 32 -10 59 -12 55 -3 70
-27 25 -39 l-25 -7 28 -1 c15 -1 27 -6 27 -12 0 -7 -17 -9 -52 -4 -65 9 -68
11 -68 39 0 28 -34 61 -55 53 -28 -11 -15 -51 20 -59 11 -3 -6 -5 -37 -6 -36
-1 -58 3 -58 9 0 7 10 9 23 5 21 -5 24 -2 24 24 0 20 -5 30 -16 31 -12 0 -10
3 5 10 14 8 53 6 129 -4 101 -14 111 -14 144 2 20 10 41 14 47 9 6 -4 45 -12
86 -18z m481 -82 c17 -13 25 -34 34 -97 4 -23 2 -32 -6 -27 -6 4 -11 0 -11 -9
0 -10 5 -13 12 -9 8 5 9 -4 5 -32 -4 -21 -7 -53 -7 -70 0 -29 -2 -31 -27 -26
-16 3 -31 10 -35 16 -6 8 -10 8 -16 -1 -5 -8 -13 -9 -22 -3 -9 5 -19 5 -26 -1
-8 -7 -13 2 -18 30 -4 27 -12 42 -26 46 -17 5 -18 10 -9 27 8 15 18 19 42 15
18 -2 40 0 51 5 12 7 22 6 28 0 14 -14 38 -4 38 17 0 14 -2 14 -10 1 -8 -13
-10 -13 -10 2 0 12 -5 15 -17 11 -10 -4 -21 -11 -24 -16 -4 -5 -12 0 -18 11
-10 18 -15 20 -42 10 -16 -6 -33 -7 -37 -3 -4 4 -1 10 6 12 6 3 12 11 12 19 0
9 -4 12 -10 9 -5 -3 -10 3 -10 15 0 17 4 20 23 15 14 -4 18 -3 9 3 -10 7 -10
11 2 21 11 10 19 9 35 -1 18 -11 23 -10 38 5 21 20 24 21 46 5z m935 -93 c18
-1 35 -5 39 -9 3 -3 18 -6 33 -6 28 0 95 -39 117 -69 11 -15 12 -14 13 2 0 30
20 18 20 -13 0 -16 3 -30 8 -30 4 0 17 -3 30 -6 32 -9 29 19 -5 44 -32 23 -24
48 10 29 12 -6 26 -18 30 -24 4 -7 15 -13 22 -13 21 0 19 -28 -2 -33 -11 -3
-7 -5 10 -6 21 -1 27 -6 27 -23 0 -22 -3 -23 -99 -23 -55 0 -97 3 -94 8 2 4
12 7 21 7 15 1 15 2 -1 11 -10 6 -103 12 -213 14 -108 2 -198 6 -201 8 -2 3
-5 16 -7 29 -1 13 -6 29 -10 36 -4 7 -1 15 8 18 19 7 36 -3 30 -19 -6 -17 52
-40 86 -33 16 3 32 1 35 -4 3 -6 0 -10 -7 -10 -10 0 -9 -3 2 -9 20 -13 32 -3
25 20 -5 15 -1 19 18 19 23 0 24 2 14 25 l-12 24 -7 -22 c-3 -12 -6 -19 -7
-14 -1 4 -14 1 -31 -8 -38 -19 -39 -19 -34 8 2 12 2 16 -2 10 -8 -18 -22 -16
-20 3 0 9 -6 19 -14 21 -9 3 -11 1 -5 -4 13 -11 15 -55 2 -50 -21 7 -32 36
-21 55 12 18 73 28 103 17 14 -6 14 -8 -2 -20 -10 -7 -14 -16 -9 -19 14 -9 35
20 35 50 0 20 3 24 16 18 9 -4 31 -8 49 -9z m-2324 -128 c3 -29 6 -97 6 -152
0 -128 4 -142 41 -147 17 -3 32 -2 34 2 2 4 1 79 -4 166 -4 87 -6 165 -3 172
8 23 36 8 44 -23 4 -17 10 -96 14 -177 6 -148 6 -148 30 -148 13 0 24 -4 24
-10 0 -5 17 -10 38 -10 l39 0 -9 61 c-11 69 -7 88 19 85 13 -2 19 -13 21 -37
7 -94 13 -117 33 -122 12 -3 18 -10 14 -16 -4 -7 5 -11 24 -11 17 0 31 -4 31
-8 0 -17 -480 5 -497 22 -4 3 29 7 73 7 l79 1 -55 10 c-30 5 -75 6 -100 2 -50
-8 -54 -8 -123 1 -58 8 -54 20 6 18 38 -1 39 -1 12 7 -16 4 -22 8 -12 9 16 1
17 8 11 65 -8 80 -3 95 30 89 24 -5 25 -9 28 -81 3 -85 8 -90 75 -77 l35 6 -2
172 c-1 95 -2 175 -1 179 1 3 9 4 20 1 14 -3 20 -17 25 -56z m560 -213 c3 -26
6 -60 6 -76 0 -28 2 -29 43 -27 24 2 49 -1 57 -6 9 -5 15 -4 18 4 3 8 7 9 11
3 8 -13 82 -19 100 -8 9 6 11 26 5 83 l-7 75 24 -7 c33 -10 31 -6 38 -79 4
-36 9 -67 11 -69 3 -3 36 -7 74 -10 108 -9 91 -18 -25 -13 -103 5 -104 5 -25
-4 43 -5 84 -12 90 -15 11 -5 -160 3 -224 10 -28 4 -30 3 -10 -3 24 -8 24 -8
4 -14 -12 -3 -57 -2 -100 3 -44 4 -91 8 -106 8 -16 1 -28 6 -28 11 0 6 12 10
28 11 18 0 22 3 12 7 -11 5 -15 25 -15 85 0 86 9 101 19 31z m1190 -50 c3 -9
6 -25 7 -37 0 -12 3 -16 6 -9 3 9 9 10 17 3 8 -6 17 -6 26 0 11 8 12 12 3 16
-23 9 -14 23 15 23 19 0 23 -3 13 -9 -7 -5 -11 -14 -7 -19 9 -16 -15 -51 -31
-45 -7 3 -13 0 -13 -7 0 -6 -4 -9 -9 -6 -5 3 -8 -6 -8 -19 0 -20 4 -25 26 -25
18 0 22 3 12 9 -9 6 -10 11 -2 15 14 9 51 -2 51 -15 0 -6 -4 -7 -10 -4 -5 3
-7 0 -4 -8 3 -8 25 -17 51 -21 89 -12 85 -15 79 67 -4 48 -3 65 3 52 5 -11 10
-34 10 -52 1 -54 17 -83 46 -83 14 0 25 -4 25 -10 0 -5 11 -10 24 -10 28 0 43
-16 24 -23 -10 -4 -9 -8 2 -17 17 -13 -160 -5 -220 11 -19 4 -69 11 -110 15
-93 9 -134 22 -75 25 22 1 31 3 20 6 -47 10 -49 12 -31 32 15 16 16 31 10 90
l-7 71 26 0 c14 0 28 -7 31 -16z"/>
<path d="M2660 3863 c0 -11 8 -13 33 -9 l32 6 -30 -14 c-16 -8 -38 -17 -47
-20 -20 -6 -46 -84 -32 -94 5 -4 9 -14 9 -22 0 -15 35 -25 125 -36 66 -7 71
-10 63 -31 -4 -11 -3 -14 6 -9 7 5 10 15 7 23 -4 9 1 17 14 20 13 4 17 9 12
17 -13 17 -13 98 0 124 16 30 -2 42 -57 40 -22 -1 -61 3 -87 9 -40 9 -48 8
-48 -4z"/>
<path d="M793 2378 c-99 -85 -124 -113 -121 -133 2 -16 12 -21 48 -25 l45 -5
3 -45 c4 -54 25 -80 64 -80 43 0 68 32 68 85 l0 45 39 0 c42 0 68 20 54 43 -9
16 -150 147 -158 147 -2 0 -21 -15 -42 -32z m162 -100 c31 -37 21 -50 -35 -46
l-35 3 -3 -50 c-4 -57 -15 -75 -47 -75 -32 0 -43 18 -47 75 l-3 50 -42 1 c-23
0 -46 4 -50 8 -4 4 25 39 65 78 l72 70 50 -42 c27 -23 61 -55 75 -72z"/>
<path d="M2106 2388 c-9 -12 -16 -42 -16 -65 l0 -43 -44 0 c-45 0 -64 -17 -49
-45 11 -18 149 -145 158 -145 9 0 147 128 158 146 16 26 -4 44 -49 44 l-44 0
0 43 c0 58 -22 87 -65 87 -24 0 -39 -7 -49 -22z m82 -11 c6 -7 12 -35 14 -62
l3 -50 45 -3 c24 -2 46 -5 49 -8 6 -6 -62 -76 -111 -115 l-37 -30 -70 67 c-39
37 -71 70 -71 75 0 4 21 9 48 11 l47 3 3 50 c2 27 8 55 14 62 14 17 52 17 66
0z"/>
<path d="M1343 2270 c-25 -10 -43 -39 -43 -70 0 -29 44 -70 75 -70 33 0 75 41
75 73 0 51 -59 87 -107 67z"/>
<path d="M1533 1904 c-26 -13 -33 -23 -33 -45 0 -16 4 -29 9 -29 5 0 7 9 4 20
-3 11 -1 20 5 20 17 0 21 -50 4 -59 -11 -6 -7 -14 21 -35 41 -32 93 -33 91 -3
-1 9 2 17 7 17 5 0 9 -4 9 -10 0 -19 15 -10 37 23 17 25 21 41 16 70 -5 35 -8
37 -39 34 -22 -1 -34 -7 -35 -17 0 -9 -4 -5 -9 8 -11 26 -41 28 -87 6z"/>
<path d="M3349 1363 c-47 -45 -69 -74 -69 -90 0 -21 5 -23 45 -23 l45 0 0 -45
c0 -51 25 -85 63 -85 34 0 55 29 59 80 l3 45 45 5 c31 3 46 10 48 22 3 18
-134 157 -156 158 -8 0 -45 -30 -83 -67z"/>
<path d="M4404 1295 c-3 -6 -4 -49 -2 -96 3 -70 6 -84 21 -87 13 -3 17 4 17
30 0 33 1 34 35 30 47 -6 75 19 75 65 0 50 -28 72 -90 71 -29 -1 -54 -7 -56
-13z"/>
<path d="M4725 1285 c-30 -30 -31 -54 -4 -89 15 -19 30 -26 55 -26 67 0 99 73
51 118 -31 29 -72 28 -102 -3z"/>
<path d="M4050 939 c0 -5 -4 -7 -10 -4 -5 3 -10 1 -10 -6 0 -10 -3 -10 -12 -1
-17 17 -57 15 -64 -3 -4 -8 -12 -15 -20 -15 -8 0 -14 -10 -14 -22 0 -17 3 -19
12 -10 26 26 79 1 77 -36 0 -13 -2 -12 -9 4 -9 24 -30 41 -30 25 0 -5 5 -13
10 -16 14 -9 12 -38 -5 -71 l-15 -29 0 26 c0 15 -7 30 -16 33 -23 9 -24 8 -25
-16 -1 -17 -2 -19 -6 -5 -2 9 -11 17 -19 17 -8 0 -14 6 -15 13 -1 6 -4 1 -8
-13 -4 -14 -13 -24 -19 -23 -7 2 -12 -4 -12 -12 0 -8 7 -15 15 -15 8 0 15 -5
15 -12 0 -9 3 -9 12 0 18 18 41 15 34 -4 -8 -22 4 -40 15 -23 7 12 9 12 9 1 0
-8 -9 -21 -19 -30 -11 -10 -22 -27 -26 -39 -6 -21 -4 -22 27 -16 37 7 66 24
121 68 28 23 37 37 37 61 0 17 6 37 14 43 12 10 18 7 30 -18 21 -40 20 -42 -9
-35 -19 5 -25 2 -25 -10 0 -9 -9 -24 -20 -33 -14 -13 -17 -20 -8 -30 6 -7 16
-13 23 -13 7 0 19 -8 26 -17 13 -15 12 -15 -5 -6 -22 12 -53 6 -59 -11 -2 -6
-3 -3 -2 6 2 10 -4 23 -13 30 -12 10 -14 10 -8 0 4 -7 1 -14 -8 -18 -8 -3 -12
-12 -9 -20 3 -8 0 -14 -6 -14 -6 0 -11 5 -11 10 0 17 -38 -12 -50 -38 -8 -19
-14 -22 -22 -14 -15 15 -28 15 -28 2 0 -5 7 -10 16 -10 9 0 14 -6 11 -12 -2
-7 -12 -11 -22 -10 -16 3 -17 2 -6 -12 12 -15 16 -14 39 9 24 24 42 32 42 19
0 -3 -11 -15 -25 -26 -14 -11 -25 -26 -25 -34 0 -8 -3 -13 -7 -13 -23 4 -43
-2 -38 -11 3 -5 31 -7 63 -5 66 5 116 -17 119 -53 2 -21 -16 -30 -30 -16 -4 4
-25 8 -47 10 -48 5 -52 -10 -15 -50 14 -15 25 -32 25 -39 0 -8 3 -8 12 1 14
14 48 16 48 3 0 -5 -7 -14 -15 -21 -11 -9 -14 -22 -10 -41 6 -28 -15 -76 -28
-63 -5 5 -4 -19 2 -58 0 -5 8 -8 17 -8 9 0 14 6 11 13 -2 6 2 24 9 38 7 15 11
29 8 32 -3 3 2 14 12 25 13 16 22 18 35 11 15 -8 19 -4 25 28 5 21 8 55 8 75
0 20 4 34 7 32 4 -2 5 5 2 16 -4 15 -2 19 10 14 9 -3 14 -13 11 -22 -5 -15 -4
-15 6 0 8 13 7 22 -2 37 -17 27 8 100 37 111 12 5 29 24 38 42 17 35 57 79 57
61 0 -5 -10 -20 -22 -33 -18 -20 -19 -23 -4 -17 10 4 21 7 26 7 5 0 11 9 15
19 3 12 19 21 40 25 19 4 37 12 41 18 5 7 3 8 -6 3 -13 -8 -30 10 -30 34 0 10
3 11 14 2 8 -7 20 -11 28 -10 7 1 21 1 31 0 17 -1 17 -2 3 -17 -15 -14 -14
-18 9 -46 14 -16 25 -36 25 -44 0 -25 -28 -15 -42 16 -7 17 -17 29 -23 27 -18
-6 -16 -45 4 -88 25 -52 25 -49 1 -49 -14 0 -22 10 -28 33 -9 36 -25 42 -31
12 -4 -25 -23 -38 -33 -22 -6 9 -8 9 -8 0 0 -7 -7 -13 -15 -13 -22 0 -18 -14
7 -25 28 -13 88 -91 88 -115 0 -10 5 -31 11 -47 l11 -28 15 40 c8 22 16 49 17
60 3 27 42 111 55 119 7 5 11 61 11 159 0 91 -4 146 -9 138 -7 -11 -11 -10
-20 6 -8 16 -6 24 9 41 22 24 28 79 8 65 -7 -4 -23 -8 -35 -8 -18 -1 -20 2
-12 17 8 15 6 18 -12 18 -15 0 -19 -5 -15 -15 6 -16 -9 -21 -18 -6 -7 11 -55
11 -62 0 -3 -5 -9 -7 -14 -4 -14 9 -21 -30 -11 -59 11 -28 31 -35 31 -11 0 10
10 15 30 15 17 0 33 0 38 1 4 0 8 -8 9 -18 2 -15 1 -15 -6 2 -5 11 -10 14 -10
7 -1 -7 -13 -18 -27 -24 -22 -10 -25 -16 -20 -47 3 -20 3 -30 0 -24 -4 10 -11
10 -26 2 -16 -8 -23 -8 -29 2 -6 10 -9 11 -9 2 0 -7 -7 -13 -15 -13 -12 0 -14
4 -5 20 6 10 10 23 9 27 -1 4 -1 10 1 13 1 3 3 18 5 33 3 22 0 27 -11 23 -8
-3 -14 -1 -14 4 0 6 5 10 11 10 6 0 3 7 -6 16 -9 9 -14 23 -11 30 7 17 -20 19
-28 2 -5 -10 -7 -10 -12 0 -7 15 -164 17 -164 1z"/>
<path d="M3003 523 c29 -8 0 -33 -38 -33 -18 0 -38 -7 -46 -16 -11 -14 -14
-14 -23 -2 -15 20 -71 30 -101 18 -15 -6 -32 -24 -40 -44 -11 -25 -22 -35 -44
-38 -17 -2 -34 -1 -39 4 -9 9 -97 -16 -119 -34 -7 -6 -13 -21 -13 -34 0 -32
-133 -144 -171 -144 -32 0 -43 -21 -25 -46 16 -21 46 -12 46 14 0 17 57 72 74
72 3 0 22 16 43 35 24 22 48 35 66 35 15 0 27 4 27 9 0 13 48 19 59 8 8 -8 11
-7 11 1 0 17 101 16 125 -2 17 -12 14 -14 -33 -26 -28 -6 -57 -10 -64 -7 -7 2
-22 0 -33 -6 -11 -6 -35 -13 -54 -16 -50 -9 -61 -34 -31 -66 13 -14 29 -23 36
-21 7 3 49 -38 94 -90 45 -52 84 -94 87 -94 7 0 6 0 -90 113 -37 43 -67 82
-67 87 0 5 17 0 38 -11 34 -19 35 -20 13 -2 l-23 20 88 18 c49 10 96 24 104
31 13 11 22 10 50 -7 56 -33 77 -69 42 -69 -10 0 -42 -7 -70 -15 l-52 -16 3
-72 2 -72 163 -3 c148 -2 163 -1 169 15 7 20 186 199 204 205 7 2 5 9 -5 17
-13 11 -16 11 -16 -1 0 -28 -36 -50 -69 -43 -29 6 -29 7 -10 26 10 10 19 27
19 38 0 10 7 24 15 31 9 7 14 15 11 17 -2 3 0 18 4 34 5 17 5 29 -1 29 -5 0
-9 -8 -9 -18 0 -36 -13 -31 -34 12 -12 24 -44 69 -72 99 -49 53 -53 55 -95 52
-24 -2 -52 -6 -61 -10 -13 -5 -18 -2 -18 9 0 10 -8 16 -22 15 -18 -1 -19 -2
-5 -6z"/>
</g>
</svg>
